<mxfile host="app.diagrams.net" modified="2022-05-20T06:23:01.283Z" agent="5.0 (Windows NT 10.0; Win64; x64) AppleWebKit/537.36 (KHTML, like Gecko) Chrome/101.0.4951.67 Safari/537.36" etag="8q70X8tlXF1ocxu__nG3" version="18.0.6" type="github">
  <diagram id="zyXJQJYnVBoggkC2p6_N" name="Page-1">
    <mxGraphModel dx="1422" dy="762" grid="0" gridSize="10" guides="1" tooltips="1" connect="1" arrows="1" fold="1" page="1" pageScale="1" pageWidth="827" pageHeight="1169" math="0" shadow="0">
      <root>
        <mxCell id="0" />
        <mxCell id="1" parent="0" />
        <mxCell id="N8hlrI_3hWO4tR8O2XFn-3" value="" style="rounded=0;whiteSpace=wrap;html=1;glass=0;sketch=1;strokeColor=#6600CC;" parent="1" vertex="1">
          <mxGeometry x="270" y="530" width="420" height="180" as="geometry" />
        </mxCell>
        <mxCell id="N8hlrI_3hWO4tR8O2XFn-5" value="" style="rounded=1;whiteSpace=wrap;html=1;glass=0;sketch=1;fillColor=#0050ef;strokeColor=#001DBC;fontColor=#ffffff;" parent="1" vertex="1">
          <mxGeometry x="380" y="555" width="230" height="30" as="geometry" />
        </mxCell>
        <mxCell id="N8hlrI_3hWO4tR8O2XFn-6" value="" style="rounded=1;whiteSpace=wrap;html=1;glass=0;sketch=1;fillColor=#dae8fc;strokeColor=#6c8ebf;" parent="1" vertex="1">
          <mxGeometry x="450" y="605" width="160" height="30" as="geometry" />
        </mxCell>
        <mxCell id="N8hlrI_3hWO4tR8O2XFn-7" value="" style="rounded=1;whiteSpace=wrap;html=1;glass=0;sketch=1;fillColor=#dae8fc;strokeColor=#6c8ebf;" parent="1" vertex="1">
          <mxGeometry x="450" y="655" width="160" height="30" as="geometry" />
        </mxCell>
        <mxCell id="N8hlrI_3hWO4tR8O2XFn-8" value="Process: share signal handler" style="text;html=1;strokeColor=none;fillColor=none;align=center;verticalAlign=middle;whiteSpace=wrap;rounded=0;glass=0;sketch=1;" parent="1" vertex="1">
          <mxGeometry x="390" y="500" width="170" height="30" as="geometry" />
        </mxCell>
        <mxCell id="N8hlrI_3hWO4tR8O2XFn-9" value="Main thread" style="text;html=1;strokeColor=none;fillColor=none;align=center;verticalAlign=middle;whiteSpace=wrap;rounded=0;glass=0;sketch=1;" parent="1" vertex="1">
          <mxGeometry x="610" y="555" width="70" height="30" as="geometry" />
        </mxCell>
        <mxCell id="N8hlrI_3hWO4tR8O2XFn-10" value="thread A" style="text;html=1;strokeColor=none;fillColor=none;align=center;verticalAlign=middle;whiteSpace=wrap;rounded=0;glass=0;sketch=1;" parent="1" vertex="1">
          <mxGeometry x="610" y="605" width="70" height="30" as="geometry" />
        </mxCell>
        <mxCell id="N8hlrI_3hWO4tR8O2XFn-11" value="thread B" style="text;html=1;strokeColor=none;fillColor=none;align=center;verticalAlign=middle;whiteSpace=wrap;rounded=0;glass=0;sketch=1;" parent="1" vertex="1">
          <mxGeometry x="610" y="655" width="70" height="30" as="geometry" />
        </mxCell>
        <mxCell id="N8hlrI_3hWO4tR8O2XFn-15" value="" style="verticalLabelPosition=bottom;verticalAlign=top;html=1;strokeWidth=2;shape=mxgraph.arrows2.arrow;dy=0.6;dx=40;notch=0;rounded=0;glass=0;sketch=1;fillColor=#d5e8d4;strokeColor=#82b366;" parent="1" vertex="1">
          <mxGeometry x="170" y="615" width="70" height="30" as="geometry" />
        </mxCell>
        <mxCell id="N8hlrI_3hWO4tR8O2XFn-16" value="process-directed signal&lt;br&gt;&lt;b&gt;&lt;i&gt;kill, raise&lt;/i&gt;&lt;/b&gt;" style="text;html=1;strokeColor=none;fillColor=none;align=center;verticalAlign=middle;whiteSpace=wrap;rounded=0;glass=0;sketch=1;" parent="1" vertex="1">
          <mxGeometry x="80" y="600" width="130" height="5" as="geometry" />
        </mxCell>
        <mxCell id="N8hlrI_3hWO4tR8O2XFn-17" value="" style="verticalLabelPosition=bottom;verticalAlign=top;html=1;shadow=0;dashed=0;strokeWidth=1;shape=mxgraph.android.text_insertion_point;rounded=0;glass=0;sketch=1;" parent="1" vertex="1">
          <mxGeometry x="120" y="615" width="20" height="30" as="geometry" />
        </mxCell>
        <mxCell id="N8hlrI_3hWO4tR8O2XFn-19" value="" style="sketch=0;pointerEvents=1;shadow=0;dashed=0;html=1;strokeColor=none;fillColor=#505050;labelPosition=center;verticalLabelPosition=bottom;verticalAlign=top;outlineConnect=0;align=center;shape=mxgraph.office.communications.queue_viewer;rounded=0;glass=0;" parent="1" vertex="1">
          <mxGeometry x="320" y="555" width="60" height="32" as="geometry" />
        </mxCell>
        <mxCell id="N8hlrI_3hWO4tR8O2XFn-20" value="" style="sketch=0;pointerEvents=1;shadow=0;dashed=0;html=1;strokeColor=none;fillColor=#505050;labelPosition=center;verticalLabelPosition=bottom;verticalAlign=top;outlineConnect=0;align=center;shape=mxgraph.office.communications.queue_viewer;rounded=0;glass=0;" parent="1" vertex="1">
          <mxGeometry x="390" y="604" width="60" height="32" as="geometry" />
        </mxCell>
        <mxCell id="N8hlrI_3hWO4tR8O2XFn-21" value="" style="sketch=0;pointerEvents=1;shadow=0;dashed=0;html=1;strokeColor=none;fillColor=#505050;labelPosition=center;verticalLabelPosition=bottom;verticalAlign=top;outlineConnect=0;align=center;shape=mxgraph.office.communications.queue_viewer;rounded=0;glass=0;" parent="1" vertex="1">
          <mxGeometry x="390" y="655" width="60" height="32" as="geometry" />
        </mxCell>
        <mxCell id="N8hlrI_3hWO4tR8O2XFn-22" value="mask" style="text;html=1;strokeColor=none;fillColor=none;align=center;verticalAlign=middle;whiteSpace=wrap;rounded=0;glass=0;sketch=1;" parent="1" vertex="1">
          <mxGeometry x="315" y="530" width="60" height="30" as="geometry" />
        </mxCell>
        <mxCell id="N8hlrI_3hWO4tR8O2XFn-23" value="" style="verticalLabelPosition=bottom;verticalAlign=top;html=1;shadow=0;dashed=0;strokeWidth=1;shape=mxgraph.android.text_insertion_point;rounded=0;glass=0;sketch=1;" parent="1" vertex="1">
          <mxGeometry x="280" y="720" width="20" height="30" as="geometry" />
        </mxCell>
        <mxCell id="N8hlrI_3hWO4tR8O2XFn-24" value="" style="verticalLabelPosition=bottom;verticalAlign=top;html=1;strokeWidth=2;shape=mxgraph.arrows2.arrow;dy=0.6;dx=40;notch=0;rounded=0;glass=0;sketch=1;rotation=-30;fillColor=#d5e8d4;strokeColor=#82b366;" parent="1" vertex="1">
          <mxGeometry x="315" y="690" width="70" height="30" as="geometry" />
        </mxCell>
        <mxCell id="N8hlrI_3hWO4tR8O2XFn-25" value="threaded-directed signal: &lt;b&gt;&lt;i&gt;pthread_kill, tgkill&lt;/i&gt;&lt;/b&gt;" style="text;html=1;strokeColor=none;fillColor=none;align=center;verticalAlign=middle;whiteSpace=wrap;rounded=0;glass=0;sketch=1;" parent="1" vertex="1">
          <mxGeometry x="300" y="740" width="155" height="10" as="geometry" />
        </mxCell>
        <mxCell id="N8hlrI_3hWO4tR8O2XFn-26" value="choose arbitrary thread which not block it" style="text;html=1;strokeColor=none;fillColor=none;align=center;verticalAlign=middle;whiteSpace=wrap;rounded=0;glass=0;sketch=1;" parent="1" vertex="1">
          <mxGeometry x="130" y="668.5" width="150" height="5" as="geometry" />
        </mxCell>
        <mxCell id="N8hlrI_3hWO4tR8O2XFn-35" style="edgeStyle=orthogonalEdgeStyle;rounded=0;orthogonalLoop=1;jettySize=auto;html=1;exitX=1;exitY=0.5;exitDx=0;exitDy=0;entryX=0;entryY=0.5;entryDx=0;entryDy=0;sketch=1;fontFamily=Comic Sans MS;" parent="1" source="N8hlrI_3hWO4tR8O2XFn-29" target="N8hlrI_3hWO4tR8O2XFn-31" edge="1">
          <mxGeometry relative="1" as="geometry" />
        </mxCell>
        <mxCell id="N8hlrI_3hWO4tR8O2XFn-29" value="&lt;font&gt;Signal&lt;/font&gt;" style="shape=ext;double=1;rounded=0;whiteSpace=wrap;html=1;glass=0;sketch=1;fontFamily=Comic Sans MS;fillColor=#bac8d3;strokeColor=#23445d;" parent="1" vertex="1">
          <mxGeometry x="39" y="79" width="80" height="50" as="geometry" />
        </mxCell>
        <mxCell id="N8hlrI_3hWO4tR8O2XFn-30" value="Signal Handler" style="shape=ext;double=1;rounded=0;whiteSpace=wrap;html=1;glass=0;sketch=1;fillColor=#d5e8d4;strokeColor=#82b366;fontFamily=Comic Sans MS;" parent="1" vertex="1">
          <mxGeometry x="429" y="79" width="80" height="50" as="geometry" />
        </mxCell>
        <mxCell id="N8hlrI_3hWO4tR8O2XFn-36" style="edgeStyle=orthogonalEdgeStyle;rounded=0;orthogonalLoop=1;jettySize=auto;html=1;exitX=1;exitY=0.5;exitDx=0;exitDy=0;entryX=0;entryY=0.5;entryDx=0;entryDy=0;sketch=1;fontFamily=Comic Sans MS;" parent="1" source="N8hlrI_3hWO4tR8O2XFn-31" target="N8hlrI_3hWO4tR8O2XFn-32" edge="1">
          <mxGeometry relative="1" as="geometry" />
        </mxCell>
        <mxCell id="N8hlrI_3hWO4tR8O2XFn-38" style="edgeStyle=orthogonalEdgeStyle;rounded=0;orthogonalLoop=1;jettySize=auto;html=1;exitX=1;exitY=0.5;exitDx=0;exitDy=0;entryX=0;entryY=0.25;entryDx=0;entryDy=0;sketch=1;fontFamily=Comic Sans MS;" parent="1" source="N8hlrI_3hWO4tR8O2XFn-31" target="N8hlrI_3hWO4tR8O2XFn-30" edge="1">
          <mxGeometry relative="1" as="geometry">
            <Array as="points">
              <mxPoint x="269" y="92" />
              <mxPoint x="349" y="92" />
            </Array>
          </mxGeometry>
        </mxCell>
        <mxCell id="N8hlrI_3hWO4tR8O2XFn-31" value="Mask" style="shape=ext;double=1;rounded=0;whiteSpace=wrap;html=1;glass=0;sketch=1;fillColor=#dae8fc;strokeColor=#6c8ebf;fontFamily=Comic Sans MS;" parent="1" vertex="1">
          <mxGeometry x="189" y="79" width="80" height="50" as="geometry" />
        </mxCell>
        <mxCell id="N8hlrI_3hWO4tR8O2XFn-37" style="edgeStyle=orthogonalEdgeStyle;rounded=0;orthogonalLoop=1;jettySize=auto;html=1;exitX=1;exitY=0.5;exitDx=0;exitDy=0;entryX=0;entryY=0.75;entryDx=0;entryDy=0;sketch=1;fontFamily=Comic Sans MS;" parent="1" source="N8hlrI_3hWO4tR8O2XFn-32" target="N8hlrI_3hWO4tR8O2XFn-30" edge="1">
          <mxGeometry relative="1" as="geometry" />
        </mxCell>
        <mxCell id="N8hlrI_3hWO4tR8O2XFn-32" value="Pending List" style="shape=ext;double=1;rounded=0;whiteSpace=wrap;html=1;glass=0;sketch=1;fillColor=#f8cecc;strokeColor=#b85450;fontFamily=Comic Sans MS;" parent="1" vertex="1">
          <mxGeometry x="309" y="159" width="80" height="50" as="geometry" />
        </mxCell>
        <mxCell id="N8hlrI_3hWO4tR8O2XFn-33" value="Thread" style="shape=delay;whiteSpace=wrap;html=1;rounded=0;glass=0;sketch=1;fontFamily=Comic Sans MS;" parent="1" vertex="1">
          <mxGeometry x="509" y="79" width="50" height="20" as="geometry" />
        </mxCell>
        <mxCell id="N8hlrI_3hWO4tR8O2XFn-34" value="Stack" style="shape=delay;whiteSpace=wrap;html=1;rounded=0;glass=0;sketch=1;fontFamily=Comic Sans MS;" parent="1" vertex="1">
          <mxGeometry x="509" y="109" width="50" height="20" as="geometry" />
        </mxCell>
        <UserObject label="per thread" placeholders="1" name="Variable" id="N8hlrI_3hWO4tR8O2XFn-40">
          <mxCell style="text;html=1;strokeColor=none;fillColor=none;align=center;verticalAlign=middle;whiteSpace=wrap;overflow=hidden;rounded=0;glass=0;sketch=1;fontFamily=Comic Sans MS;" parent="1" vertex="1">
            <mxGeometry x="189" y="129" width="80" height="20" as="geometry" />
          </mxCell>
        </UserObject>
        <UserObject label="per process" placeholders="1" name="Variable" id="N8hlrI_3hWO4tR8O2XFn-41">
          <mxCell style="text;html=1;strokeColor=none;fillColor=none;align=center;verticalAlign=middle;whiteSpace=wrap;overflow=hidden;rounded=0;glass=0;sketch=1;fontFamily=Comic Sans MS;" parent="1" vertex="1">
            <mxGeometry x="429" y="129" width="80" height="20" as="geometry" />
          </mxCell>
        </UserObject>
        <mxCell id="N8hlrI_3hWO4tR8O2XFn-43" value="mask" style="text;html=1;strokeColor=none;fillColor=none;align=center;verticalAlign=middle;whiteSpace=wrap;rounded=0;glass=0;sketch=1;" parent="1" vertex="1">
          <mxGeometry x="384" y="585" width="60" height="30" as="geometry" />
        </mxCell>
        <mxCell id="N8hlrI_3hWO4tR8O2XFn-44" value="mask" style="text;html=1;strokeColor=none;fillColor=none;align=center;verticalAlign=middle;whiteSpace=wrap;rounded=0;glass=0;sketch=1;" parent="1" vertex="1">
          <mxGeometry x="390" y="635" width="60" height="30" as="geometry" />
        </mxCell>
        <mxCell id="N8hlrI_3hWO4tR8O2XFn-48" value="" style="rounded=1;whiteSpace=wrap;html=1;glass=0;sketch=1;fillColor=none;strokeColor=#6600CC;fontFamily=Comic Sans MS;" parent="1" vertex="1">
          <mxGeometry x="159" y="39" width="416" height="180" as="geometry" />
        </mxCell>
        <UserObject label="Unblocking" placeholders="1" name="Variable" id="N8hlrI_3hWO4tR8O2XFn-45">
          <mxCell style="text;html=1;strokeColor=none;fillColor=none;align=center;verticalAlign=middle;whiteSpace=wrap;overflow=hidden;rounded=0;glass=0;sketch=1;fontFamily=Comic Sans MS;" parent="1" vertex="1">
            <mxGeometry x="299" y="69" width="80" height="20" as="geometry" />
          </mxCell>
        </UserObject>
        <UserObject label="Unblocking" placeholders="1" name="Variable" id="N8hlrI_3hWO4tR8O2XFn-46">
          <mxCell style="text;html=1;strokeColor=none;fillColor=none;align=center;verticalAlign=middle;whiteSpace=wrap;overflow=hidden;rounded=0;glass=0;sketch=1;fontFamily=Comic Sans MS;" parent="1" vertex="1">
            <mxGeometry x="409" y="159" width="80" height="20" as="geometry" />
          </mxCell>
        </UserObject>
        <UserObject label="Blocking" placeholders="1" name="Variable" id="N8hlrI_3hWO4tR8O2XFn-47">
          <mxCell style="text;html=1;strokeColor=none;fillColor=none;align=center;verticalAlign=middle;whiteSpace=wrap;overflow=hidden;rounded=0;glass=0;sketch=1;fontFamily=Comic Sans MS;" parent="1" vertex="1">
            <mxGeometry x="214" y="159" width="80" height="20" as="geometry" />
          </mxCell>
        </UserObject>
        <UserObject label="Process" placeholders="1" name="Variable" id="N8hlrI_3hWO4tR8O2XFn-50">
          <mxCell style="text;html=1;strokeColor=none;fillColor=none;align=center;verticalAlign=middle;whiteSpace=wrap;overflow=hidden;rounded=0;glass=0;sketch=1;fontFamily=Comic Sans MS;" parent="1" vertex="1">
            <mxGeometry x="309" y="19" width="80" height="20" as="geometry" />
          </mxCell>
        </UserObject>
        <mxCell id="N8hlrI_3hWO4tR8O2XFn-87" value="&lt;div style=&quot;margin-left: 8px; color: rgb(24, 24, 24); font-size: 16px; font-style: normal; font-weight: 400; letter-spacing: normal; text-indent: 0px; text-transform: none; word-spacing: 0px;&quot;&gt;&lt;a href=&quot;https://man7.org/linux/man-pages/man3/raise.3.html&quot; style=&quot;color: rgb(16 , 48 , 255) ; text-decoration: none&quot;&gt;raise(3)&lt;/a&gt;&lt;/div&gt;" style="text;whiteSpace=wrap;html=1;fontFamily=Comic Sans MS;" parent="1" vertex="1">
          <mxGeometry x="29" y="239" width="100" height="60" as="geometry" />
        </mxCell>
        <mxCell id="N8hlrI_3hWO4tR8O2XFn-88" value="&lt;div style=&quot;margin-left: 8px; color: rgb(24, 24, 24); font-size: 16px; font-style: normal; font-weight: 400; letter-spacing: normal; text-indent: 0px; text-transform: none; word-spacing: 0px;&quot;&gt;&lt;a href=&quot;https://man7.org/linux/man-pages/man2/kill.2.html&quot; style=&quot;color: rgb(16 , 48 , 255) ; text-decoration: none&quot;&gt;kill(2)&lt;/a&gt;&lt;/div&gt;" style="text;whiteSpace=wrap;html=1;fontFamily=Comic Sans MS;" parent="1" vertex="1">
          <mxGeometry x="34" y="269" width="100" height="60" as="geometry" />
        </mxCell>
        <mxCell id="N8hlrI_3hWO4tR8O2XFn-89" value="&lt;div style=&quot;margin-left: 8px; color: rgb(24, 24, 24); font-size: 16px; font-style: normal; font-weight: 400; letter-spacing: normal; text-indent: 0px; text-transform: none; word-spacing: 0px;&quot;&gt; &lt;a href=&quot;https://man7.org/linux/man-pages/man3/pthread_kill.3.html&quot; style=&quot;color: rgb(16 , 48 , 255) ; text-decoration: none&quot;&gt;pthread_kill(3)&lt;/a&gt;&lt;/div&gt;" style="text;whiteSpace=wrap;html=1;fontFamily=Comic Sans MS;" parent="1" vertex="1">
          <mxGeometry x="34" y="299" width="170" height="60" as="geometry" />
        </mxCell>
        <mxCell id="N8hlrI_3hWO4tR8O2XFn-90" value="&lt;div style=&quot;margin-left: 8px; color: rgb(24, 24, 24); font-size: 16px; font-style: normal; font-weight: 400; letter-spacing: normal; text-indent: 0px; text-transform: none; word-spacing: 0px;&quot;&gt;&lt;a href=&quot;https://man7.org/linux/man-pages/man3/sigqueue.3.html&quot; style=&quot;color: rgb(16 , 48 , 255) ; text-decoration: none&quot;&gt;sigqueue(3)&lt;/a&gt;&lt;/div&gt;" style="text;whiteSpace=wrap;html=1;fontFamily=Comic Sans MS;" parent="1" vertex="1">
          <mxGeometry x="33" y="359" width="130" height="60" as="geometry" />
        </mxCell>
        <mxCell id="N8hlrI_3hWO4tR8O2XFn-91" value="&lt;div style=&quot;margin-left: 8px; color: rgb(24, 24, 24); font-size: 16px; font-style: normal; font-weight: 400; letter-spacing: normal; text-indent: 0px; text-transform: none; word-spacing: 0px;&quot;&gt;&lt;a href=&quot;https://man7.org/linux/man-pages/man2/tgkill.2.html&quot; style=&quot;color: rgb(16 , 48 , 255) ; text-decoration: none&quot;&gt;tgkill(2)&lt;/a&gt;&lt;/div&gt;" style="text;whiteSpace=wrap;html=1;fontFamily=Comic Sans MS;" parent="1" vertex="1">
          <mxGeometry x="34" y="329" width="110" height="60" as="geometry" />
        </mxCell>
        <mxCell id="N8hlrI_3hWO4tR8O2XFn-92" value="&lt;div style=&quot;margin-left: 8px; color: rgb(24, 24, 24); font-size: 16px; font-style: normal; font-weight: 400; letter-spacing: normal; text-indent: 0px; text-transform: none; word-spacing: 0px;&quot;&gt; &lt;a href=&quot;https://man7.org/linux/man-pages/man3/pthread_sigmask.3.html&quot; style=&quot;color: rgb(16 , 48 , 255) ; text-decoration: none&quot;&gt;pthread_sigmask(3)&lt;/a&gt;&lt;/div&gt;" style="text;whiteSpace=wrap;html=1;fontFamily=Comic Sans MS;" parent="1" vertex="1">
          <mxGeometry x="164" y="239" width="200" height="60" as="geometry" />
        </mxCell>
        <mxCell id="N8hlrI_3hWO4tR8O2XFn-93" value="&lt;div style=&quot;margin-left: 8px; color: rgb(24, 24, 24); font-size: 16px; font-style: normal; font-weight: 400; letter-spacing: normal; text-indent: 0px; text-transform: none; word-spacing: 0px;&quot;&gt;&lt;a href=&quot;https://man7.org/linux/man-pages/man2/sigprocmask.2.html&quot; style=&quot;color: rgb(16 , 48 , 255) ; text-decoration: none&quot;&gt;sigprocmask(2)&lt;/a&gt;&lt;/div&gt;" style="text;whiteSpace=wrap;html=1;fontFamily=Comic Sans MS;" parent="1" vertex="1">
          <mxGeometry x="163" y="269" width="160" height="60" as="geometry" />
        </mxCell>
        <mxCell id="N8hlrI_3hWO4tR8O2XFn-94" value="&lt;div style=&quot;margin-left: 8px; color: rgb(24, 24, 24); font-size: 16px; font-style: normal; font-weight: 400; letter-spacing: normal; text-indent: 0px; text-transform: none; word-spacing: 0px;&quot;&gt;&lt;a href=&quot;https://man7.org/linux/man-pages/man2/sigpending.2.html&quot; style=&quot;color: rgb(16 , 48 , 255) ; text-decoration: none&quot;&gt;sigpending(2)&lt;/a&gt;&lt;/div&gt;" style="text;whiteSpace=wrap;html=1;fontFamily=Comic Sans MS;" parent="1" vertex="1">
          <mxGeometry x="279" y="359" width="150" height="60" as="geometry" />
        </mxCell>
        <mxCell id="N8hlrI_3hWO4tR8O2XFn-95" value="&lt;div style=&quot;margin-left: 8px; color: rgb(24, 24, 24); font-size: 16px; font-style: normal; font-weight: 400; letter-spacing: normal; text-indent: 0px; text-transform: none; word-spacing: 0px;&quot;&gt;&lt;a href=&quot;https://man7.org/linux/man-pages/man2/sigaltstack.2.html&quot; style=&quot;color: rgb(16 , 48 , 255) ; text-decoration: none&quot;&gt;sigaltstack(2)&lt;/a&gt;&lt;/div&gt;" style="text;whiteSpace=wrap;html=1;fontFamily=Comic Sans MS;" parent="1" vertex="1">
          <mxGeometry x="399" y="289" width="160" height="60" as="geometry" />
        </mxCell>
        <mxCell id="N8hlrI_3hWO4tR8O2XFn-96" value="&lt;div style=&quot;margin-left: 8px; color: rgb(24, 24, 24); font-size: 16px; font-style: normal; font-weight: 400; letter-spacing: normal; text-indent: 0px; text-transform: none; word-spacing: 0px;&quot;&gt;&lt;a href=&quot;https://man7.org/linux/man-pages/man2/sigaction.2.html&quot; style=&quot;color: rgb(16 , 48 , 255) ; text-decoration: none&quot;&gt;sigaction(2)&lt;/a&gt;&lt;/div&gt;" style="text;whiteSpace=wrap;html=1;fontFamily=Comic Sans MS;" parent="1" vertex="1">
          <mxGeometry x="399" y="259" width="140" height="60" as="geometry" />
        </mxCell>
        <mxCell id="N8hlrI_3hWO4tR8O2XFn-97" value="&lt;div style=&quot;margin-left: 8px; color: rgb(24, 24, 24); font-size: 16px; font-style: normal; font-weight: 400; letter-spacing: normal; text-indent: 0px; text-transform: none; word-spacing: 0px;&quot;&gt;&lt;a href=&quot;https://man7.org/linux/man-pages/man2/signal.2.html&quot; style=&quot;color: rgb(16 , 48 , 255) ; text-decoration: none&quot;&gt;signal(2)&lt;/a&gt;&lt;/div&gt;" style="text;whiteSpace=wrap;html=1;fontFamily=Comic Sans MS;" parent="1" vertex="1">
          <mxGeometry x="399" y="229" width="110" height="60" as="geometry" />
        </mxCell>
        <mxCell id="N8hlrI_3hWO4tR8O2XFn-100" value="&lt;div style=&quot;margin-left: 8px; color: rgb(24, 24, 24); font-size: 16px; font-style: normal; font-weight: 400; letter-spacing: normal; text-indent: 0px; text-transform: none; word-spacing: 0px;&quot;&gt;&lt;a href=&quot;https://man7.org/linux/man-pages/man2/pause.2.html&quot; style=&quot;color: rgb(16 , 48 , 255) ; text-decoration: none&quot;&gt;pause(2)&lt;/a&gt;&lt;/div&gt;" style="text;whiteSpace=wrap;html=1;fontFamily=Comic Sans MS;align=left;" parent="1" vertex="1">
          <mxGeometry x="519" y="229" width="100" height="60" as="geometry" />
        </mxCell>
        <mxCell id="N8hlrI_3hWO4tR8O2XFn-101" value="&lt;div style=&quot;margin-left: 8px; color: rgb(24, 24, 24); font-size: 16px; font-style: normal; font-weight: 400; letter-spacing: normal; text-indent: 0px; text-transform: none; word-spacing: 0px;&quot;&gt;&lt;a href=&quot;https://man7.org/linux/man-pages/man2/sigsuspend.2.html&quot; style=&quot;color: rgb(16 , 48 , 255) ; text-decoration: none&quot;&gt;sigsuspend(2)&lt;/a&gt;&lt;/div&gt;" style="text;whiteSpace=wrap;html=1;fontFamily=Comic Sans MS;align=left;" parent="1" vertex="1">
          <mxGeometry x="519" y="266" width="150" height="60" as="geometry" />
        </mxCell>
        <mxCell id="N8hlrI_3hWO4tR8O2XFn-102" value="&lt;div style=&quot;margin-left: 8px; color: rgb(24, 24, 24); font-size: 16px; font-style: normal; font-weight: 400; letter-spacing: normal; text-indent: 0px; text-transform: none; word-spacing: 0px;&quot;&gt;&lt;a href=&quot;https://man7.org/linux/man-pages/man3/sigwait.3.html&quot; style=&quot;color: rgb(16 , 48 , 255) ; text-decoration: none&quot;&gt;sigwait(3)&lt;/a&gt;&lt;/div&gt;" style="text;whiteSpace=wrap;html=1;fontFamily=Comic Sans MS;align=left;" parent="1" vertex="1">
          <mxGeometry x="519" y="326" width="120" height="60" as="geometry" />
        </mxCell>
        <mxCell id="N8hlrI_3hWO4tR8O2XFn-103" value="&lt;div style=&quot;margin-left: 8px; color: rgb(24, 24, 24); font-size: 16px; font-style: normal; font-weight: 400; letter-spacing: normal; text-indent: 0px; text-transform: none; word-spacing: 0px;&quot;&gt;&lt;a href=&quot;https://man7.org/linux/man-pages/man2/signalfd.2.html&quot; style=&quot;color: rgb(16 , 48 , 255) ; text-decoration: none&quot;&gt;signalfd(2)&lt;/a&gt;&lt;/div&gt;" style="text;whiteSpace=wrap;html=1;fontFamily=Comic Sans MS;align=left;" parent="1" vertex="1">
          <mxGeometry x="514" y="362" width="130" height="60" as="geometry" />
        </mxCell>
        <mxCell id="N8hlrI_3hWO4tR8O2XFn-104" value="" style="rounded=1;whiteSpace=wrap;html=1;glass=0;sketch=1;fontFamily=Comic Sans MS;strokeColor=#36393d;fillColor=#cdeb8b;shadow=0;" parent="1" vertex="1">
          <mxGeometry x="514" y="329" width="120" height="60" as="geometry" />
        </mxCell>
        <mxCell id="N8hlrI_3hWO4tR8O2XFn-105" value="&lt;div style=&quot;margin-left: 8px; color: rgb(24, 24, 24); font-size: 16px; font-style: normal; font-weight: 400; letter-spacing: normal; text-indent: 0px; text-transform: none; word-spacing: 0px;&quot;&gt; &lt;b style=&quot;color: rgb(80 , 32 , 0)&quot;&gt;Synchronously accepting a signal&lt;/b&gt;&lt;/div&gt;" style="text;whiteSpace=wrap;html=1;fontFamily=Comic Sans MS;" parent="1" vertex="1">
          <mxGeometry x="629" y="329" width="160" height="33" as="geometry" />
        </mxCell>
        <mxCell id="N8hlrI_3hWO4tR8O2XFn-106" value="" style="rounded=1;whiteSpace=wrap;html=1;glass=0;sketch=1;fontFamily=Comic Sans MS;strokeColor=#36393d;fillColor=#cdeb8b;shadow=0;" parent="1" vertex="1">
          <mxGeometry x="514" y="239" width="120" height="60" as="geometry" />
        </mxCell>
        <mxCell id="N8hlrI_3hWO4tR8O2XFn-107" value="&lt;div style=&quot;margin-left: 8px; color: rgb(24, 24, 24); font-size: 16px; font-style: normal; font-weight: 400; letter-spacing: normal; text-indent: 0px; text-transform: none; word-spacing: 0px;&quot;&gt;&lt;b style=&quot;color: rgb(80 , 32 , 0)&quot;&gt;Waiting for a signal to be caught&lt;/b&gt;&lt;/div&gt;" style="text;whiteSpace=wrap;html=1;fontFamily=Comic Sans MS;" parent="1" vertex="1">
          <mxGeometry x="634" y="244" width="160" height="50" as="geometry" />
        </mxCell>
        <mxCell id="N8hlrI_3hWO4tR8O2XFn-108" style="edgeStyle=orthogonalEdgeStyle;rounded=0;sketch=1;orthogonalLoop=1;jettySize=auto;html=1;exitX=0.5;exitY=1;exitDx=0;exitDy=0;fontFamily=Comic Sans MS;" parent="1" source="N8hlrI_3hWO4tR8O2XFn-105" target="N8hlrI_3hWO4tR8O2XFn-105" edge="1">
          <mxGeometry relative="1" as="geometry" />
        </mxCell>
        <mxCell id="N8hlrI_3hWO4tR8O2XFn-109" value="" style="endArrow=none;dashed=1;html=1;dashPattern=1 3;strokeWidth=2;rounded=0;sketch=1;fontFamily=Comic Sans MS;entryX=0.5;entryY=1;entryDx=0;entryDy=0;exitX=0.5;exitY=0;exitDx=0;exitDy=0;fontColor=#0000FF;fillColor=#ffff88;strokeColor=#A680B8;" parent="1" source="N8hlrI_3hWO4tR8O2XFn-87" target="N8hlrI_3hWO4tR8O2XFn-29" edge="1">
          <mxGeometry width="50" height="50" relative="1" as="geometry">
            <mxPoint x="-11" y="259" as="sourcePoint" />
            <mxPoint x="39" y="209" as="targetPoint" />
          </mxGeometry>
        </mxCell>
        <mxCell id="N8hlrI_3hWO4tR8O2XFn-110" value="" style="endArrow=none;dashed=1;html=1;dashPattern=1 3;strokeWidth=2;rounded=0;sketch=1;fontFamily=Comic Sans MS;entryX=0.5;entryY=1;entryDx=0;entryDy=0;exitX=0.5;exitY=0;exitDx=0;exitDy=0;strokeColor=#A680B8;fontColor=#0000FF;fillColor=#ffff88;" parent="1" edge="1">
          <mxGeometry width="50" height="50" relative="1" as="geometry">
            <mxPoint x="229" y="239" as="sourcePoint" />
            <mxPoint x="229" y="129" as="targetPoint" />
          </mxGeometry>
        </mxCell>
        <mxCell id="N8hlrI_3hWO4tR8O2XFn-111" value="" style="endArrow=none;dashed=1;html=1;dashPattern=1 3;strokeWidth=2;rounded=0;sketch=1;fontFamily=Comic Sans MS;entryX=0.5;entryY=1;entryDx=0;entryDy=0;exitX=0.5;exitY=0;exitDx=0;exitDy=0;strokeColor=#A680B8;fontColor=#0000FF;fillColor=#ffff88;" parent="1" edge="1">
          <mxGeometry width="50" height="50" relative="1" as="geometry">
            <mxPoint x="348.5" y="339" as="sourcePoint" />
            <mxPoint x="348.5" y="229" as="targetPoint" />
          </mxGeometry>
        </mxCell>
        <mxCell id="N8hlrI_3hWO4tR8O2XFn-112" value="" style="endArrow=none;dashed=1;html=1;dashPattern=1 3;strokeWidth=2;rounded=0;sketch=1;fontFamily=Comic Sans MS;entryX=0.5;entryY=1;entryDx=0;entryDy=0;exitX=0.5;exitY=0;exitDx=0;exitDy=0;strokeColor=#A680B8;fontColor=#0000FF;fillColor=#ffff88;" parent="1" edge="1">
          <mxGeometry width="50" height="50" relative="1" as="geometry">
            <mxPoint x="469" y="239" as="sourcePoint" />
            <mxPoint x="469" y="129" as="targetPoint" />
          </mxGeometry>
        </mxCell>
        <mxCell id="0nDTwUh8IDCDTMbu1GWb-1" style="edgeStyle=orthogonalEdgeStyle;rounded=0;orthogonalLoop=1;jettySize=auto;html=1;exitX=1;exitY=0.5;exitDx=0;exitDy=0;entryX=0;entryY=0.5;entryDx=0;entryDy=0;sketch=1;fontFamily=Comic Sans MS;" edge="1" parent="1" source="0nDTwUh8IDCDTMbu1GWb-2" target="0nDTwUh8IDCDTMbu1GWb-6">
          <mxGeometry relative="1" as="geometry" />
        </mxCell>
        <mxCell id="0nDTwUh8IDCDTMbu1GWb-2" value="&lt;font&gt;Signal&lt;/font&gt;" style="shape=ext;double=1;rounded=0;whiteSpace=wrap;html=1;glass=0;sketch=1;fontFamily=Comic Sans MS;fillColor=#bac8d3;strokeColor=#23445d;" vertex="1" parent="1">
          <mxGeometry x="140" y="934" width="80" height="50" as="geometry" />
        </mxCell>
        <mxCell id="0nDTwUh8IDCDTMbu1GWb-3" value="Signal Handler" style="shape=ext;double=1;rounded=0;whiteSpace=wrap;html=1;glass=0;sketch=1;fillColor=#d5e8d4;strokeColor=#82b366;fontFamily=Comic Sans MS;" vertex="1" parent="1">
          <mxGeometry x="530" y="934" width="80" height="50" as="geometry" />
        </mxCell>
        <mxCell id="0nDTwUh8IDCDTMbu1GWb-4" style="edgeStyle=orthogonalEdgeStyle;rounded=0;orthogonalLoop=1;jettySize=auto;html=1;exitX=1;exitY=0.5;exitDx=0;exitDy=0;entryX=0;entryY=0.5;entryDx=0;entryDy=0;sketch=1;fontFamily=Comic Sans MS;" edge="1" parent="1" source="0nDTwUh8IDCDTMbu1GWb-6" target="0nDTwUh8IDCDTMbu1GWb-8">
          <mxGeometry relative="1" as="geometry" />
        </mxCell>
        <mxCell id="0nDTwUh8IDCDTMbu1GWb-5" style="edgeStyle=orthogonalEdgeStyle;rounded=0;orthogonalLoop=1;jettySize=auto;html=1;exitX=1;exitY=0.5;exitDx=0;exitDy=0;entryX=0;entryY=0.25;entryDx=0;entryDy=0;sketch=1;fontFamily=Comic Sans MS;" edge="1" parent="1" source="0nDTwUh8IDCDTMbu1GWb-6" target="0nDTwUh8IDCDTMbu1GWb-3">
          <mxGeometry relative="1" as="geometry">
            <Array as="points">
              <mxPoint x="370" y="947" />
              <mxPoint x="450" y="947" />
            </Array>
          </mxGeometry>
        </mxCell>
        <mxCell id="0nDTwUh8IDCDTMbu1GWb-6" value="Mask" style="shape=ext;double=1;rounded=0;whiteSpace=wrap;html=1;glass=0;sketch=1;fillColor=#dae8fc;strokeColor=#6c8ebf;fontFamily=Comic Sans MS;" vertex="1" parent="1">
          <mxGeometry x="290" y="934" width="80" height="50" as="geometry" />
        </mxCell>
        <mxCell id="0nDTwUh8IDCDTMbu1GWb-7" style="edgeStyle=orthogonalEdgeStyle;rounded=0;orthogonalLoop=1;jettySize=auto;html=1;exitX=1;exitY=0.5;exitDx=0;exitDy=0;entryX=0;entryY=0.75;entryDx=0;entryDy=0;sketch=1;fontFamily=Comic Sans MS;" edge="1" parent="1" source="0nDTwUh8IDCDTMbu1GWb-8" target="0nDTwUh8IDCDTMbu1GWb-3">
          <mxGeometry relative="1" as="geometry" />
        </mxCell>
        <mxCell id="0nDTwUh8IDCDTMbu1GWb-8" value="Pending List" style="shape=ext;double=1;rounded=0;whiteSpace=wrap;html=1;glass=0;sketch=1;fillColor=#f8cecc;strokeColor=#b85450;fontFamily=Comic Sans MS;" vertex="1" parent="1">
          <mxGeometry x="410" y="1014" width="80" height="50" as="geometry" />
        </mxCell>
        <mxCell id="0nDTwUh8IDCDTMbu1GWb-9" value="Thread" style="shape=delay;whiteSpace=wrap;html=1;rounded=0;glass=0;sketch=1;fontFamily=Comic Sans MS;" vertex="1" parent="1">
          <mxGeometry x="610" y="934" width="50" height="20" as="geometry" />
        </mxCell>
        <mxCell id="0nDTwUh8IDCDTMbu1GWb-10" value="Stack" style="shape=delay;whiteSpace=wrap;html=1;rounded=0;glass=0;sketch=1;fontFamily=Comic Sans MS;" vertex="1" parent="1">
          <mxGeometry x="610" y="964" width="50" height="20" as="geometry" />
        </mxCell>
        <UserObject label="per thread" placeholders="1" name="Variable" id="0nDTwUh8IDCDTMbu1GWb-11">
          <mxCell style="text;html=1;strokeColor=none;fillColor=none;align=center;verticalAlign=middle;whiteSpace=wrap;overflow=hidden;rounded=0;glass=0;sketch=1;fontFamily=Comic Sans MS;" vertex="1" parent="1">
            <mxGeometry x="290" y="984" width="80" height="20" as="geometry" />
          </mxCell>
        </UserObject>
        <UserObject label="per process" placeholders="1" name="Variable" id="0nDTwUh8IDCDTMbu1GWb-12">
          <mxCell style="text;html=1;strokeColor=none;fillColor=none;align=center;verticalAlign=middle;whiteSpace=wrap;overflow=hidden;rounded=0;glass=0;sketch=1;fontFamily=Comic Sans MS;" vertex="1" parent="1">
            <mxGeometry x="530" y="984" width="80" height="20" as="geometry" />
          </mxCell>
        </UserObject>
        <mxCell id="0nDTwUh8IDCDTMbu1GWb-13" value="" style="rounded=1;whiteSpace=wrap;html=1;glass=0;sketch=1;fillColor=none;strokeColor=#6600CC;fontFamily=Comic Sans MS;" vertex="1" parent="1">
          <mxGeometry x="260" y="894" width="416" height="180" as="geometry" />
        </mxCell>
        <UserObject label="Unblocking" placeholders="1" name="Variable" id="0nDTwUh8IDCDTMbu1GWb-14">
          <mxCell style="text;html=1;strokeColor=none;fillColor=none;align=center;verticalAlign=middle;whiteSpace=wrap;overflow=hidden;rounded=0;glass=0;sketch=1;fontFamily=Comic Sans MS;" vertex="1" parent="1">
            <mxGeometry x="400" y="924" width="80" height="20" as="geometry" />
          </mxCell>
        </UserObject>
        <UserObject label="Unblocking" placeholders="1" name="Variable" id="0nDTwUh8IDCDTMbu1GWb-15">
          <mxCell style="text;html=1;strokeColor=none;fillColor=none;align=center;verticalAlign=middle;whiteSpace=wrap;overflow=hidden;rounded=0;glass=0;sketch=1;fontFamily=Comic Sans MS;" vertex="1" parent="1">
            <mxGeometry x="510" y="1014" width="80" height="20" as="geometry" />
          </mxCell>
        </UserObject>
        <UserObject label="Blocking" placeholders="1" name="Variable" id="0nDTwUh8IDCDTMbu1GWb-16">
          <mxCell style="text;html=1;strokeColor=none;fillColor=none;align=center;verticalAlign=middle;whiteSpace=wrap;overflow=hidden;rounded=0;glass=0;sketch=1;fontFamily=Comic Sans MS;" vertex="1" parent="1">
            <mxGeometry x="315" y="1014" width="80" height="20" as="geometry" />
          </mxCell>
        </UserObject>
        <UserObject label="Process" placeholders="1" name="Variable" id="0nDTwUh8IDCDTMbu1GWb-17">
          <mxCell style="text;html=1;strokeColor=none;fillColor=none;align=center;verticalAlign=middle;whiteSpace=wrap;overflow=hidden;rounded=0;glass=0;sketch=1;fontFamily=Comic Sans MS;" vertex="1" parent="1">
            <mxGeometry x="410" y="874" width="80" height="20" as="geometry" />
          </mxCell>
        </UserObject>
      </root>
    </mxGraphModel>
  </diagram>
</mxfile>
